<svg height="225.70250336881628" version="1.1" width="220" xmlns="http://www.w3.org/2000/svg" style="overflow: hidden; position: relative; top: -0.6666717529296875px;"><desc style="-webkit-tap-highlight-color: rgba(0, 0, 0, 0);">Created with Raphaël 2.1.2</desc><defs style="-webkit-tap-highlight-color: rgba(0, 0, 0, 0);"></defs><path fill="#9e0039" stroke="#9e0039" d="M74,36.64101615137754L62,43.569219381653056L50,36.64101615137755L50,22.784609690826528L62,15.856406460551018L74,22.78460969082653Z" stroke-width="0.5" stroke-linejoin="miter" style="-webkit-tap-highlight-color: rgba(0, 0, 0, 0); stroke-linejoin: miter; cursor: pointer;"></path><path fill="#9e005d" stroke="#9e005d" d="M98,36.64101615137754L86,43.569219381653056L74,36.64101615137755L74,22.784609690826528L86,15.856406460551018L98,22.78460969082653Z" stroke-width="0.5" stroke-linejoin="miter" style="-webkit-tap-highlight-color: rgba(0, 0, 0, 0); stroke-linejoin: miter; cursor: pointer;"></path><path fill="#630460" stroke="#630460" d="M122,36.64101615137754L110,43.569219381653056L98,36.64101615137755L98,22.784609690826528L110,15.856406460551018L122,22.78460969082653Z" stroke-width="0.5" stroke-linejoin="miter" style="-webkit-tap-highlight-color: rgba(0, 0, 0, 0); stroke-linejoin: miter; cursor: pointer;"></path><path fill="#440e62" stroke="#440e62" d="M146,36.64101615137754L134,43.569219381653056L122,36.64101615137755L122,22.784609690826528L134,15.856406460551018L146,22.78460969082653Z" stroke-width="0.5" stroke-linejoin="miter" style="-webkit-tap-highlight-color: rgba(0, 0, 0, 0); stroke-linejoin: miter; cursor: pointer;"></path><path fill="#32004b" stroke="#32004b" d="M170,36.64101615137754L158,43.569219381653056L146,36.64101615137755L146,22.784609690826528L158,15.856406460551018L170,22.78460969082653Z" stroke-width="0.5" stroke-linejoin="miter" style="-webkit-tap-highlight-color: rgba(0, 0, 0, 0); stroke-linejoin: miter; cursor: pointer;"></path><path fill="#492a10" stroke="#492a10" d="M62,57.42562584220407L50,64.35382907247958L38,57.42562584220408L38,43.569219381653056L50,36.64101615137754L62,43.569219381653056Z" stroke-width="0.5" stroke-linejoin="miter" style="-webkit-tap-highlight-color: rgba(0, 0, 0, 0); stroke-linejoin: miter; cursor: pointer;"></path><path fill="#ed145b" stroke="#ed145b" d="M86,57.42562584220407L74,64.35382907247958L62,57.42562584220408L62,43.569219381653056L74,36.64101615137754L86,43.569219381653056Z" stroke-width="0.5" stroke-linejoin="miter" style="-webkit-tap-highlight-color: rgba(0, 0, 0, 0); stroke-linejoin: miter; cursor: pointer;"></path><path fill="#ec008c" stroke="#ec008c" d="M110,57.42562584220407L98,64.35382907247958L86,57.42562584220408L86,43.569219381653056L98,36.64101615137754L110,43.569219381653056Z" stroke-width="0.5" stroke-linejoin="miter" style="-webkit-tap-highlight-color: rgba(0, 0, 0, 0); stroke-linejoin: miter; cursor: pointer;"></path><path fill="#92278f" stroke="#92278f" d="M134,57.42562584220407L122,64.35382907247958L110,57.42562584220408L110,43.569219381653056L122,36.64101615137754L134,43.569219381653056Z" stroke-width="0.5" stroke-linejoin="miter" style="-webkit-tap-highlight-color: rgba(0, 0, 0, 0); stroke-linejoin: miter; cursor: pointer;"></path><path fill="#662d91" stroke="#662d91" d="M158,57.42562584220407L146,64.35382907247958L134,57.42562584220408L134,43.569219381653056L146,36.64101615137754L158,43.569219381653056Z" stroke-width="0.5" stroke-linejoin="miter" style="-webkit-tap-highlight-color: rgba(0, 0, 0, 0); stroke-linejoin: miter; cursor: pointer;"></path><path fill="#000080" stroke="#000080" d="M182,57.42562584220407L170,64.35382907247958L158,57.42562584220408L158,43.569219381653056L170,36.64101615137754L182,43.569219381653056Z" stroke-width="0.5" stroke-linejoin="miter" style="-webkit-tap-highlight-color: rgba(0, 0, 0, 0); stroke-linejoin: miter; cursor: pointer;"></path><path fill="#603913" stroke="#603913" d="M50,78.2102355330306L38,85.13843876330611L26.000000000000004,78.21023553303061L26,64.35382907247958L38,57.42562584220407L50,64.35382907247958Z" stroke-width="0.5" stroke-linejoin="miter" style="-webkit-tap-highlight-color: rgba(0, 0, 0, 0); stroke-linejoin: miter; cursor: pointer;"></path><path fill="#8c6239" stroke="#8c6239" d="M74,78.2102355330306L62,85.13843876330611L50,78.21023553303061L50,64.35382907247958L62,57.42562584220407L74,64.35382907247958Z" stroke-width="0.5" stroke-linejoin="miter" style="-webkit-tap-highlight-color: rgba(0, 0, 0, 0); stroke-linejoin: miter; cursor: pointer;"></path><path fill="#f26d7d" stroke="#f26d7d" d="M98,78.2102355330306L86,85.13843876330611L74,78.21023553303061L74,64.35382907247958L86,57.42562584220407L98,64.35382907247958Z" stroke-width="0.5" stroke-linejoin="miter" style="-webkit-tap-highlight-color: rgba(0, 0, 0, 0); stroke-linejoin: miter; cursor: pointer;"></path><path fill="#f06eaa" stroke="#f06eaa" d="M122,78.2102355330306L110,85.13843876330611L98,78.21023553303061L98,64.35382907247958L110,57.42562584220407L122,64.35382907247958Z" stroke-width="0.5" stroke-linejoin="miter" style="-webkit-tap-highlight-color: rgba(0, 0, 0, 0); stroke-linejoin: miter; cursor: pointer;"></path><path fill="#8560a8" stroke="#8560a8" d="M146,78.2102355330306L134,85.13843876330611L122,78.21023553303061L122,64.35382907247958L134,57.42562584220407L146,64.35382907247958Z" stroke-width="0.5" stroke-linejoin="miter" style="-webkit-tap-highlight-color: rgba(0, 0, 0, 0); stroke-linejoin: miter; cursor: pointer;"></path><path fill="#2e3192" stroke="#2e3192" d="M170,78.2102355330306L158,85.13843876330611L146,78.21023553303061L146,64.35382907247958L158,57.42562584220407L170,64.35382907247958Z" stroke-width="0.5" stroke-linejoin="miter" style="-webkit-tap-highlight-color: rgba(0, 0, 0, 0); stroke-linejoin: miter; cursor: pointer;"></path><path fill="#0d004c" stroke="#0d004c" d="M194,78.2102355330306L182,85.13843876330611L170,78.21023553303061L170,64.35382907247958L182,57.42562584220407L194,64.35382907247958Z" stroke-width="0.5" stroke-linejoin="miter" style="-webkit-tap-highlight-color: rgba(0, 0, 0, 0); stroke-linejoin: miter; cursor: pointer;"></path><path fill="#9e0b0f" stroke="#9e0b0f" d="M38,98.99484522385714L26,105.92304845413264L14.000000000000004,98.99484522385714L13.999999999999998,85.13843876330611L26,78.21023553303061L38,85.13843876330611Z" stroke-width="0.5" stroke-linejoin="miter" style="-webkit-tap-highlight-color: rgba(0, 0, 0, 0); stroke-linejoin: miter; cursor: pointer;"></path><path fill="#a0410d" stroke="#a0410d" d="M62,98.99484522385714L50,105.92304845413264L38,98.99484522385714L38,85.13843876330611L50,78.21023553303061L62,85.13843876330611Z" stroke-width="0.5" stroke-linejoin="miter" style="-webkit-tap-highlight-color: rgba(0, 0, 0, 0); stroke-linejoin: miter; cursor: pointer;"></path><path fill="#c69c6d" stroke="#c69c6d" d="M86,98.99484522385714L74,105.92304845413264L62,98.99484522385714L62,85.13843876330611L74,78.21023553303061L86,85.13843876330611Z" stroke-width="0.5" stroke-linejoin="miter" style="-webkit-tap-highlight-color: rgba(0, 0, 0, 0); stroke-linejoin: miter; cursor: pointer;"></path><path fill="#f5989d" stroke="#f5989d" d="M110,98.99484522385714L98,105.92304845413264L86,98.99484522385714L86,85.13843876330611L98,78.21023553303061L110,85.13843876330611Z" stroke-width="0.5" stroke-linejoin="miter" style="-webkit-tap-highlight-color: rgba(0, 0, 0, 0); stroke-linejoin: miter; cursor: pointer;"></path><path fill="#bd8cbf" stroke="#bd8cbf" d="M134,98.99484522385714L122,105.92304845413264L110,98.99484522385714L110,85.13843876330611L122,78.21023553303061L134,85.13843876330611Z" stroke-width="0.5" stroke-linejoin="miter" style="-webkit-tap-highlight-color: rgba(0, 0, 0, 0); stroke-linejoin: miter; cursor: pointer;"></path><path fill="#5674b9" stroke="#5674b9" d="M158,98.99484522385714L146,105.92304845413264L134,98.99484522385714L134,85.13843876330611L146,78.21023553303061L158,85.13843876330611Z" stroke-width="0.5" stroke-linejoin="miter" style="-webkit-tap-highlight-color: rgba(0, 0, 0, 0); stroke-linejoin: miter; cursor: pointer;"></path><path fill="#0054a6" stroke="#0054a6" d="M182,98.99484522385714L170,105.92304845413264L158,98.99484522385714L158,85.13843876330611L170,78.21023553303061L182,85.13843876330611Z" stroke-width="0.5" stroke-linejoin="miter" style="-webkit-tap-highlight-color: rgba(0, 0, 0, 0); stroke-linejoin: miter; cursor: pointer;"></path><path fill="#002157" stroke="#002157" d="M206,98.99484522385714L194,105.92304845413264L182,98.99484522385714L182,85.13843876330611L194,78.21023553303061L206,85.13843876330611Z" stroke-width="0.5" stroke-linejoin="miter" style="-webkit-tap-highlight-color: rgba(0, 0, 0, 0); stroke-linejoin: miter; cursor: pointer;"></path><path fill="#790000" stroke="#790000" d="M26,119.77945491468367L14,126.70765814495917L2.0000000000000036,119.77945491468367L1.9999999999999982,105.92304845413264L13.999999999999998,98.99484522385714L26,105.92304845413264Z" stroke-width="0.5" stroke-linejoin="miter" style="-webkit-tap-highlight-color: rgba(0, 0, 0, 0); stroke-linejoin: miter; cursor: pointer;"></path><path fill="#ec1a29" stroke="#ec1a29" d="M50,119.77945491468367L38,126.70765814495917L26.000000000000004,119.77945491468367L26,105.92304845413264L38,98.99484522385714L50,105.92304845413264Z" stroke-width="0.5" stroke-linejoin="miter" style="-webkit-tap-highlight-color: rgba(0, 0, 0, 0); stroke-linejoin: miter; cursor: pointer;"></path><path fill="#f26c4f" stroke="#f26c4f" d="M74,119.77945491468367L62,126.70765814495917L50,119.77945491468367L50,105.92304845413264L62,98.99484522385714L74,105.92304845413264Z" stroke-width="0.5" stroke-linejoin="miter" style="-webkit-tap-highlight-color: rgba(0, 0, 0, 0); stroke-linejoin: miter; cursor: pointer;"></path><path fill="#f69679" stroke="#f69679" d="M98,119.77945491468367L86,126.70765814495917L74,119.77945491468367L74,105.92304845413264L86,98.99484522385714L98,105.92304845413264Z" stroke-width="0.5" stroke-linejoin="miter" style="-webkit-tap-highlight-color: rgba(0, 0, 0, 0); stroke-linejoin: miter; cursor: pointer;"></path><path fill="#ffffff" stroke="#ffffff" d="M122,119.77945491468367L110,126.70765814495917L98,119.77945491468367L98,105.92304845413264L110,98.99484522385714L122,105.92304845413264Z" stroke-width="0.5" stroke-linejoin="miter" style="-webkit-tap-highlight-color: rgba(0, 0, 0, 0); stroke-linejoin: miter; cursor: pointer;"></path><path fill="#7da7d9" stroke="#7da7d9" d="M146,119.77945491468367L134,126.70765814495917L122,119.77945491468367L122,105.92304845413264L134,98.99484522385714L146,105.92304845413264Z" stroke-width="0.5" stroke-linejoin="miter" style="-webkit-tap-highlight-color: rgba(0, 0, 0, 0); stroke-linejoin: miter; cursor: pointer;"></path><path fill="#448ccb" stroke="#448ccb" d="M170,119.77945491468367L158,126.70765814495917L146,119.77945491468367L146,105.92304845413264L158,98.99484522385714L170,105.92304845413264Z" stroke-width="0.5" stroke-linejoin="miter" style="-webkit-tap-highlight-color: rgba(0, 0, 0, 0); stroke-linejoin: miter; cursor: pointer;"></path><path fill="#0072bc" stroke="#0072bc" d="M194,119.77945491468367L182,126.70765814495917L170,119.77945491468367L170,105.92304845413264L182,98.99484522385714L194,105.92304845413264Z" stroke-width="0.5" stroke-linejoin="miter" style="-webkit-tap-highlight-color: rgba(0, 0, 0, 0); stroke-linejoin: miter; cursor: pointer;"></path><path fill="#003663" stroke="#003663" d="M218,119.77945491468367L206,126.70765814495917L194,119.77945491468367L194,105.92304845413264L206,98.99484522385714L218,105.92304845413264Z" stroke-width="0.5" stroke-linejoin="miter" style="-webkit-tap-highlight-color: rgba(0, 0, 0, 0); stroke-linejoin: miter; cursor: pointer;"></path><path fill="#7a2d00" stroke="#7a2d00" d="M38,140.5640646055102L26,147.4922678357857L14.000000000000004,140.5640646055102L13.999999999999998,126.70765814495917L26,119.77945491468367L38,126.70765814495917Z" stroke-width="0.5" stroke-linejoin="miter" style="-webkit-tap-highlight-color: rgba(0, 0, 0, 0); stroke-linejoin: miter; cursor: pointer;"></path><path fill="#f26522" stroke="#f26522" d="M62,140.5640646055102L50,147.4922678357857L38,140.5640646055102L38,126.70765814495917L50,119.77945491468367L62,126.70765814495917Z" stroke-width="0.5" stroke-linejoin="miter" style="-webkit-tap-highlight-color: rgba(0, 0, 0, 0); stroke-linejoin: miter; cursor: pointer;"></path><path fill="#f68356" stroke="#f68356" d="M86,140.5640646055102L74,147.4922678357857L62,140.5640646055102L62,126.70765814495917L74,119.77945491468367L86,126.70765814495917Z" stroke-width="0.5" stroke-linejoin="miter" style="-webkit-tap-highlight-color: rgba(0, 0, 0, 0); stroke-linejoin: miter; cursor: pointer;"></path><path fill="#fff799" stroke="#fff799" d="M110,140.5640646055102L98,147.4922678357857L86,140.5640646055102L86,126.70765814495917L98,119.77945491468367L110,126.70765814495917Z" stroke-width="0.5" stroke-linejoin="miter" style="-webkit-tap-highlight-color: rgba(0, 0, 0, 0); stroke-linejoin: miter; cursor: pointer;"></path><path fill="#82ca9c" stroke="#82ca9c" d="M134,140.5640646055102L122,147.4922678357857L110,140.5640646055102L110,126.70765814495917L122,119.77945491468367L134,126.70765814495917Z" stroke-width="0.5" stroke-linejoin="miter" style="-webkit-tap-highlight-color: rgba(0, 0, 0, 0); stroke-linejoin: miter; cursor: pointer;"></path><path fill="#1cbbb4" stroke="#1cbbb4" d="M158,140.5640646055102L146,147.4922678357857L134,140.5640646055102L134,126.70765814495917L146,119.77945491468367L158,126.70765814495917Z" stroke-width="0.5" stroke-linejoin="miter" style="-webkit-tap-highlight-color: rgba(0, 0, 0, 0); stroke-linejoin: miter; cursor: pointer;"></path><path fill="#00aeef" stroke="#00aeef" d="M182,140.5640646055102L170,147.4922678357857L158,140.5640646055102L158,126.70765814495917L170,119.77945491468367L182,126.70765814495917Z" stroke-width="0.5" stroke-linejoin="miter" style="-webkit-tap-highlight-color: rgba(0, 0, 0, 0); stroke-linejoin: miter; cursor: pointer;"></path><path fill="#003471" stroke="#003471" d="M206,140.5640646055102L194,147.4922678357857L182,140.5640646055102L182,126.70765814495917L194,119.77945491468367L206,126.70765814495917Z" stroke-width="0.5" stroke-linejoin="miter" style="-webkit-tap-highlight-color: rgba(0, 0, 0, 0); stroke-linejoin: miter; cursor: pointer;"></path><path fill="#a0410d" stroke="#a0410d" d="M50,161.3486742963367L38,168.27687752661222L26.000000000000004,161.3486742963367L26,147.4922678357857L38,140.5640646055102L50,147.4922678357857Z" stroke-width="0.5" stroke-linejoin="miter" style="-webkit-tap-highlight-color: rgba(0, 0, 0, 0); stroke-linejoin: miter; cursor: pointer;"></path><path fill="#f7941d" stroke="#f7941d" d="M74,161.3486742963367L62,168.27687752661222L50,161.3486742963367L50,147.4922678357857L62,140.5640646055102L74,147.4922678357857Z" stroke-width="0.5" stroke-linejoin="miter" style="-webkit-tap-highlight-color: rgba(0, 0, 0, 0); stroke-linejoin: miter; cursor: pointer;"></path><path fill="#fff568" stroke="#fff568" d="M98,161.3486742963367L86,168.27687752661222L74,161.3486742963367L74,147.4922678357857L86,140.5640646055102L98,147.4922678357857Z" stroke-width="0.5" stroke-linejoin="miter" style="-webkit-tap-highlight-color: rgba(0, 0, 0, 0); stroke-linejoin: miter; cursor: pointer;"></path><path fill="#7cc576" stroke="#7cc576" d="M122,161.3486742963367L110,168.27687752661222L98,161.3486742963367L98,147.4922678357857L110,140.5640646055102L122,147.4922678357857Z" stroke-width="0.5" stroke-linejoin="miter" style="-webkit-tap-highlight-color: rgba(0, 0, 0, 0); stroke-linejoin: miter; cursor: pointer;"></path><path fill="#3cb878" stroke="#3cb878" d="M146,161.3486742963367L134,168.27687752661222L122,161.3486742963367L122,147.4922678357857L134,140.5640646055102L146,147.4922678357857Z" stroke-width="0.5" stroke-linejoin="miter" style="-webkit-tap-highlight-color: rgba(0, 0, 0, 0); stroke-linejoin: miter; cursor: pointer;"></path><path fill="#00a99d" stroke="#00a99d" d="M170,161.3486742963367L158,168.27687752661222L146,161.3486742963367L146,147.4922678357857L158,140.5640646055102L170,147.4922678357857Z" stroke-width="0.5" stroke-linejoin="miter" style="-webkit-tap-highlight-color: rgba(0, 0, 0, 0); stroke-linejoin: miter; cursor: pointer;"></path><path fill="#005b7f" stroke="#005b7f" d="M194,161.3486742963367L182,168.27687752661222L170,161.3486742963367L170,147.4922678357857L182,140.5640646055102L194,147.4922678357857Z" stroke-width="0.5" stroke-linejoin="miter" style="-webkit-tap-highlight-color: rgba(0, 0, 0, 0); stroke-linejoin: miter; cursor: pointer;"></path><path fill="#a3620a" stroke="#a3620a" d="M62,182.13328398716322L50,189.06148721743875L38,182.13328398716322L38,168.27687752661222L50,161.3486742963367L62,168.27687752661222Z" stroke-width="0.5" stroke-linejoin="miter" style="-webkit-tap-highlight-color: rgba(0, 0, 0, 0); stroke-linejoin: miter; cursor: pointer;"></path><path fill="#fff200" stroke="#fff200" d="M86,182.13328398716322L74,189.06148721743875L62,182.13328398716322L62,168.27687752661222L74,161.3486742963367L86,168.27687752661222Z" stroke-width="0.5" stroke-linejoin="miter" style="-webkit-tap-highlight-color: rgba(0, 0, 0, 0); stroke-linejoin: miter; cursor: pointer;"></path><path fill="#8dc63f" stroke="#8dc63f" d="M110,182.13328398716322L98,189.06148721743875L86,182.13328398716322L86,168.27687752661222L98,161.3486742963367L110,168.27687752661222Z" stroke-width="0.5" stroke-linejoin="miter" style="-webkit-tap-highlight-color: rgba(0, 0, 0, 0); stroke-linejoin: miter; cursor: pointer;"></path><path fill="#39b54a" stroke="#39b54a" d="M134,182.13328398716322L122,189.06148721743875L110,182.13328398716322L110,168.27687752661222L122,161.3486742963367L134,168.27687752661222Z" stroke-width="0.5" stroke-linejoin="miter" style="-webkit-tap-highlight-color: rgba(0, 0, 0, 0); stroke-linejoin: miter; cursor: pointer;"></path><path fill="#00a651" stroke="#00a651" d="M158,182.13328398716322L146,189.06148721743875L134,182.13328398716322L134,168.27687752661222L146,161.3486742963367L158,168.27687752661222Z" stroke-width="0.5" stroke-linejoin="miter" style="-webkit-tap-highlight-color: rgba(0, 0, 0, 0); stroke-linejoin: miter; cursor: pointer;"></path><path fill="#00746b" stroke="#00746b" d="M182,182.13328398716322L170,189.06148721743875L158,182.13328398716322L158,168.27687752661222L170,161.3486742963367L182,168.27687752661222Z" stroke-width="0.5" stroke-linejoin="miter" style="-webkit-tap-highlight-color: rgba(0, 0, 0, 0); stroke-linejoin: miter; cursor: pointer;"></path><path fill="#827b00" stroke="#827b00" d="M74,202.91789367798975L62,209.84609690826528L50,202.91789367798975L50,189.06148721743875L62,182.13328398716322L74,189.06148721743875Z" stroke-width="0.5" stroke-linejoin="miter" style="-webkit-tap-highlight-color: rgba(0, 0, 0, 0); stroke-linejoin: miter; cursor: pointer;"></path><path fill="#598527" stroke="#598527" d="M98,202.91789367798975L86,209.84609690826528L74,202.91789367798975L74,189.06148721743875L86,182.13328398716322L98,189.06148721743875Z" stroke-width="0.5" stroke-linejoin="miter" style="-webkit-tap-highlight-color: rgba(0, 0, 0, 0); stroke-linejoin: miter; cursor: pointer;"></path><path fill="#406618" stroke="#406618" d="M122,202.91789367798975L110,209.84609690826528L98,202.91789367798975L98,189.06148721743875L110,182.13328398716322L122,189.06148721743875Z" stroke-width="0.5" stroke-linejoin="miter" style="-webkit-tap-highlight-color: rgba(0, 0, 0, 0); stroke-linejoin: miter; cursor: pointer;"></path><path fill="#005e20" stroke="#005e20" d="M146,202.91789367798975L134,209.84609690826528L122,202.91789367798975L122,189.06148721743875L134,182.13328398716322L146,189.06148721743875Z" stroke-width="0.5" stroke-linejoin="miter" style="-webkit-tap-highlight-color: rgba(0, 0, 0, 0); stroke-linejoin: miter; cursor: pointer;"></path><path fill="#005826" stroke="#005826" d="M170,202.91789367798975L158,209.84609690826528L146,202.91789367798975L146,189.06148721743875L158,182.13328398716322L170,189.06148721743875Z" stroke-width="0.5" stroke-linejoin="miter" style="-webkit-tap-highlight-color: rgba(0, 0, 0, 0); stroke-linejoin: miter; cursor: pointer;"></path><path fill="none" stroke="#ffffff" d="M26,36.64101615137754L14,43.569219381653056L2.0000000000000036,36.64101615137755L1.9999999999999982,22.784609690826528L13.999999999999998,15.856406460551018L26,22.78460969082653Z" stroke-width="3" transform="matrix(1,0,0,1,192,83.1384)" style="-webkit-tap-highlight-color: rgba(0, 0, 0, 0);"></path><path fill="none" stroke="#ffffff" d="M26,36.64101615137754L14,43.569219381653056L2.0000000000000036,36.64101615137755L1.9999999999999982,22.784609690826528L13.999999999999998,15.856406460551018L26,22.78460969082653Z" stroke-width="2" transform="matrix(1,0,0,1,84,20.7846)" style="-webkit-tap-highlight-color: rgba(0, 0, 0, 0); display: none;"></path></svg>
