<?xml version="1.0" encoding="utf-8"?>
<!-- Generator: Adobe Illustrator 18.1.0, SVG Export Plug-In . SVG Version: 6.00 Build 0)  -->
<svg version="1.1" id="Layer_1" xmlns="http://www.w3.org/2000/svg" xmlns:xlink="http://www.w3.org/1999/xlink" x="0px" y="0px"
	 viewBox="0 0 793.6 793.6" enable-background="new 0 0 793.6 793.6" xml:space="preserve">
<g>
	<g>
		<path fill="#FFFFFF" d="M396.8,793.6L0,396.8l1.8-1.8L396.8,0l1.8,1.8l395.1,395.1L396.8,793.6z M171,560.8L389.3,779
			c4.2,4.2,10.9,4.2,15.1,0l218.7-218.7c-1.6,0.2-3.2,0.3-4.8,0.3c-0.3,0-0.6,0-0.9,0c-23.5,0-45-17-55.3-43.3
			c-10.4,25.7-31.6,42.8-54.5,43.2c-0.3,0-0.6,0-0.9,0c-23.2,0-44.4-16.8-55.5-43.5c-10.4,26.2-31.1,43-54.2,43.5
			c-24.1,0.5-45.6-16.3-56.2-43.3c-10.5,26.3-31.3,43.2-54.2,43.6c-0.3,0-0.6,0-0.9,0c-23.9,0-45.8-16.9-56.3-43
			c-10.5,26.3-30.5,42.6-53.3,43C174.3,561,172.7,560.9,171,560.8z M229.2,502.2l2.4,7.6c8.6,27.8,30.2,46.2,53.9,46.2
			c0.3,0,0.6,0,0.8,0c22.7-0.4,43.1-18.8,52-46.8l2.4-7.6l2.4,7.6c8.9,28.7,30,47,53.7,46.5c22.8-0.4,43.2-18.7,51.9-46.5l2.3-7.4
			l2.5,7.3c9.5,28.4,30.9,46.6,53.7,46.6c0.3,0-0.3,0,0,0c22.7-0.4,43.9-19.1,52.5-46.5l2.4-7.8l2.3,7.8
			c8.4,27.9,29.6,46.5,52.9,46.5c0.3,0,0.5,0,0.8,0c3.8-0.1,7.6-0.6,11.3-1.7l151.3-151.3c3.2-3.2,3.2-8.4,0-11.6L402.4,12.7
			c-3.1-3.1-8.1-3.1-11.2,0L13,390.9c-3.3,3.3-3.3,8.6,0,11.9l152,152c3.6,0.9,7.2,1.2,10.8,1.2c22.5-0.4,42-18.1,51-46.2
			L229.2,502.2z"/>
	</g>
	<path fill="#FFFFFF" d="M542.7,462.4c-3.7,0-7.8-0.4-12.3-1.4c-33.1-7.1-54.2-73.4-76.5-143.5c-12-37.6-24.1-76-38.3-106
		c-53.3,74.2-105.1,150.4-155.2,228.6c-1.4,2.2-2.9,4.5-4.3,6.7c-3.8,0-7.6,0-11.4,0c16.2-22.1,32.3-44.5,48.5-67.2
		c41.7-58.6,81.5-116.6,119.5-174c-10.3-23.7-24.6-46.6-45.5-52.4c-7.5-2.1-20.9,2-29.3,7.6c-8.1,5.4-15.4,15.6-16,34.4l-10.9,4.5
		c0-17.8,14.2-37.1,23.5-43.3c9.9-6.6,25.1-8.1,34.1-5.7c41.9,11.5,66.8,89.7,90.8,165.3c20.9,65.5,42.8,136.2,72.6,142.6
		c7.4,1.6,25.3,1.1,36.6-12.7c5.6-6.9,11.3-17.9,10.2-33.8l8.2,5.4c0,12.2-7.5,24.1-13.7,31.8C569.6,453.7,560.1,462.4,542.7,462.4z
		"/>
</g>
<path d="M269.6,191.5"/>
<path d="M304.6,337.5"/>
</svg>
