<?xml version="1.0" encoding="utf-8"?>
<!-- Generator: Adobe Illustrator 18.1.0, SVG Export Plug-In . SVG Version: 6.00 Build 0)  -->
<svg version="1.1" id="Layer_1" xmlns="http://www.w3.org/2000/svg" xmlns:xlink="http://www.w3.org/1999/xlink" x="0px" y="0px"
	 viewBox="185.2 27.3 910.2 909.6" enable-background="new 185.2 27.3 910.2 909.6" xml:space="preserve">
<g>
	<path d="M1095.4,482.4L640.2,27.3l-455,455.1l180.3,180.3c2.1,0.3,4.4,0.5,7,0.5c21.9-0.4,41.2-18.7,50.5-47.6l14.3-45.4l14.3,45.4
		c8.8,28.5,30.4,47.6,53.8,47.6h0.9c22.2-0.4,42.5-19.4,51.7-48.3l14.3-45.4l14.4,45.4c9.2,29.5,30.2,48.4,53.3,47.9
		c22.4-0.4,42.7-19.2,51.7-47.9l13.7-44l14.9,43.6c9.7,28.9,31.2,48.3,53.6,48.3c22.4-0.5,43.4-19.7,52.2-47.9l13.9-45
		c-6.4,2.4-14,4.1-23,4.1c-5.7,0-11.6-0.7-17.5-2c-46.8-10-72.2-89.7-101.5-181.9l-1.4-4.3c-11.4-35.8-23.1-72.5-36.1-103.7
		c-60.3,84.5-119.3,171.6-175.5,259.3c-0.8,1.3-1.7,2.7-2.6,4.1c-0.9,1.3-1.7,2.7-2.5,4l-3.5,5.6h-44.1l14-19.1
		c17.1-23.4,35.2-48.5,58.7-81.3c48.3-67.9,95.7-136.8,140.9-204.9c-13.7-29.6-28.4-46.3-44.7-50.8c-0.3-0.1-1-0.2-2.4-0.2
		c-6.4,0-16.6,3.5-23.2,7.9c-8.8,5.9-13.6,16.7-14,32.1l-0.2,7.8l-36.9,15.3v-17.9c0-26,19.6-53,33.8-62.4
		c9.7-6.5,23.1-10.2,36.7-10.2c5.3,0,10.1,0.6,14.3,1.7c26.8,7.3,49.2,31.9,70.9,77.4c17.9,37.7,32.9,85,47.5,130.7l1.7,5.4
		c12.3,38.4,24.9,78.2,38.7,108.7c17.4,38.7,30.6,48.8,38.6,50.5c0.7,0.2,2.6,0.5,5.6,0.5c5.2,0,18.2-1.1,26.9-11.8
		c7.3-9,10.5-19.9,9.7-32.5l-1.7-24.2l35.6,23.4v6.5c0,18.3-10.5,35.1-19.2,46l-0.2,0.2c-3.2,3.8-10.3,10.9-21.8,15.6l13.5,45.7
		c8.6,28.5,29.7,47.7,52.6,47.7h0.8c2.8-0.1,5.3-0.4,7.7-0.9L1095.4,482.4z"/>
	<path d="M887.8,690.1c-18.6-5.3-35.4-18.1-47.5-36.1c-16.2,23.7-40.3,38.3-65.7,38.8l-1.3,0c-26.1,0-50.5-14.5-67.1-39.1
		c-16,24-39.7,38.5-65.5,39.1c-0.5,0-1,0-1.5,0c-26.5,0-50.7-14.3-66.8-38.6c-16,24-39.7,38.5-65.4,39l-1.3,0
		c-26.5,0-51.5-14.6-68-38.5c-11.6,17.7-27.2,30-44.9,35.4l246.9,246.9c0.4,0.4,0.9,0.4,1.3,0L887.8,690.1z"/>
</g>
<path display="none" d="M486.2,233.8"/>
<path display="none" d="M528.6,410.6"/>
</svg>
