<?xml version="1.0" encoding="utf-8"?>
<!-- Generator: Adobe Illustrator 18.1.0, SVG Export Plug-In . SVG Version: 6.00 Build 0)  -->
<svg version="1.1" id="Layer_1" xmlns="http://www.w3.org/2000/svg" xmlns:xlink="http://www.w3.org/1999/xlink" x="0px" y="0px"
	 viewBox="4.4 2.8 969.6 969.4" enable-background="new 4.4 2.8 969.6 969.4" xml:space="preserve">
<g>
	<path d="M974,487.6L489.1,2.8L4.4,487.6l192.1,192.1c2.2,0.3,4.7,0.5,7.5,0.5c23.3-0.4,43.9-19.9,53.8-50.7l15.2-48.4l15.2,48.4
		c9.4,30.4,32.4,50.7,57.3,50.7h1c23.6-0.4,45.3-20.7,55.1-51.5l15.2-48.4l15.3,48.4c9.8,31.4,32.2,51.6,56.8,51
		c23.9-0.4,45.5-20.5,55.1-51l14.6-46.9l15.9,46.4c10.3,30.8,33.2,51.5,57.1,51.5c23.9-0.5,46.2-21,55.6-51l14.8-47.9
		c-6.8,2.6-14.9,4.4-24.5,4.4c-6.1,0-12.4-0.7-18.6-2.1c-49.9-10.7-76.9-95.6-108.1-193.8l-1.5-4.6c-12.1-38.1-24.6-77.2-38.5-110.5
		c-64.2,90-127.1,182.8-187,276.2c-0.9,1.4-1.8,2.9-2.8,4.4c-1,1.4-1.8,2.9-2.7,4.3l-3.7,6h-47l14.9-20.3
		c18.2-24.9,37.5-51.7,62.5-86.6c51.5-72.3,101.9-145.7,150.1-218.3c-14.6-31.5-30.3-49.3-47.6-54.1c-0.3-0.1-1.1-0.2-2.6-0.2
		c-6.8,0-17.7,3.7-24.7,8.4c-9.4,6.3-14.5,17.8-14.9,34.2l-0.2,8.3l-39.3,16.3v-19.1c0-27.7,20.9-56.5,36-66.5
		c10.3-6.9,24.6-10.9,39.1-10.9c5.6,0,10.8,0.6,15.2,1.8c28.6,7.8,52.4,34,75.5,82.5c19.1,40.2,35,90.6,50.6,139.2l1.8,5.8
		c13.1,40.9,26.5,83.3,41.2,115.8c18.5,41.2,32.6,52,41.1,53.8c0.7,0.2,2.8,0.5,6,0.5c5.5,0,19.4-1.2,28.7-12.6
		c7.8-9.6,11.2-21.2,10.3-34.6l-1.8-25.8l37.9,24.9v6.9c0,19.5-11.2,37.4-20.5,49l-0.2,0.2c-3.4,4-11,11.6-23.2,16.6l14.4,48.7
		c9.2,30.4,31.6,50.8,56,50.8h0.9c3-0.1,5.6-0.4,8.2-1L974,487.6z"/>
	<path d="M752.9,708.9c-19.8-5.6-37.7-19.3-50.6-38.5c-17.3,25.2-42.9,40.8-70,41.3h-1.4c-27.8,0-53.8-15.4-71.5-41.7
		c-17,25.6-42.3,41-69.8,41.7c-0.5,0-1.1,0-1.6,0c-28.2,0-54-15.2-71.2-41.1c-17,25.6-42.3,41-69.7,41.5h-1.4
		c-28.2,0-54.9-15.6-72.4-41c-12.4,18.9-29,32-47.8,37.7l263,263c0.4,0.4,1,0.4,1.4,0L752.9,708.9z"/>
</g>
<path display="none" d="M661,247.3"/>
<path display="none" d="M706.2,435.6"/>
</svg>
